#!OML:ASF Y:\EmotionMaleHayes\Project 1\Capture day 1\Session 1\Male1.ASF
:FULLY-SPECIFIED
:DEGREES
2285
root -16.3469 16.1522 17.5819 169.805 -48.8198 195.051
lowerback 16.4961 7.80669 -0.598265
upperback 7.5931 9.48554 1.78103
thorax -1.45726 4.36427 0.539055
lowerneck -22.4291 -4.63226 -3.53637
upperneck 31.3583 -8.75209 6.70211
head 15.227 -3.42385 1.61193
rclavicle 6.95746e-014 -2.46493e-014
rhumerus -38.881 24.7444 -98.7749
rradius 101.876
rwrist -6.57345
rhand -22.9437 -26.1376
rfingers 7.12502
rthumb 3.49743 -56.0887
lclavicle 6.95746e-014 -2.46493e-014
lhumerus -80.3049 -8.97645 102.242
lradius 53.0765
lwrist -3.77009
lhand 8.57167 -21.7146
lfingers 7.12502
lthumb 33.7704 5.11986
rfemur 9.58402 -5.72107 16.9489
rtibia 12.1414
rfoot -20.651 -6.96593
rtoes 1.55325
lfemur -29.7146 5.32662 6.65642
ltibia 38.6477
lfoot -6.80252 6.90502
ltoes -15.8133
2286
root -16.4943 16.139 17.5736 170.864 -48.4094 194.199
lowerback 16.2798 7.93028 -1.45936
upperback 7.60898 9.51728 1.46621
thorax -1.41273 4.3681 0.695377
lowerneck -22.4818 -4.64931 -3.69721
upperneck 31.3508 -8.8811 7.12411
head 15.2844 -3.43991 1.78779
rclavicle -7.17613e-014 -4.37326e-015
rhumerus -39.3615 25.0067 -99.0203
rradius 101.674
rwrist -4.9316
rhand -22.8441 -25.5173
rfingers 7.12502
rthumb 3.59362 -55.4667
lclavicle -7.17613e-014 -4.37326e-015
lhumerus -80.1485 -9.62025 103.01
lradius 52.6539
lwrist -3.84354
lhand 10.7279 -21.5076
lfingers 7.12502
lthumb 35.8164 4.8538
rfemur 9.58402 -5.72107 16.9489
rtibia 12.1414
rfoot -20.651 -6.96593
rtoes 1.55325
lfemur -30.0118 5.82818 5.77589
ltibia 39.637
lfoot -7.74472 7.14006
ltoes -18.7677
2287
root -16.6419 16.1306 17.5662 171.671 -48.1828 193.711
lowerback 15.9268 7.94291 -1.87701
upperback 7.72125 9.46358 1.10211
thorax -1.1127 4.33483 0.607389
lowerneck -22.574 -4.67547 -3.73887
upperneck 31.1757 -9.01919 7.50823
head 15.2656 -3.44847 1.92356
rclavicle -1.35174e-014 -3.02153e-014
rhumerus -39.548 25.1499 -99.133
rradius 101.245
rwrist -3.42496
rhand -22.6638 -25.5912
rfingers 7.12502
rthumb 3.76773 -55.5377
lclavicle -1.35174e-014 -3.02153e-014
lhumerus -79.8614 -10.638 103.681
lradius 52.4382
lwrist -4.56814
lhand 12.2271 -21.832
lfingers 7.12502
lthumb 37.2355 4.17124
rfemur 9.58402 -5.72107 16.9489
rtibia 12.1414
rfoot -20.651 -6.96593
rtoes 1.55325
lfemur -30.0761 6.58578 4.99042
ltibia 40.1132
lfoot -8.37723 7.18051
ltoes -21.9114
2288
root -16.7868 16.1236 17.56 172.523 -48.0487 193.056
lowerback 15.5369 7.93481 -2.28963
upperback 7.94968 9.3754 0.697447
thorax -0.660944 4.27666 0.495145
lowerneck -22.7378 -4.79705 -3.75431
upperneck 31.0001 -9.28819 7.84758
head 15.27 -3.51157 2.0078
rclavicle -2.66371e-014 -2.22639e-014
rhumerus -39.6305 25.1855 -99.2775
rradius 100.631
rwrist -2.04093
rhand -22.6134 -25.5715
rfingers 7.12502
rthumb 3.81648 -55.5171
lclavicle -2.66371e-014 -2.22639e-014
lhumerus -79.2533 -11.7077 104.103
lradius 52.1953
lwrist -6.09567
lhand 12.9332 -22.4324
lfingers 7.12502
lthumb 37.9028 3.39318
rfemur 9.58402 -5.72107 16.9489
rtibia 12.1414
rfoot -20.651 -6.96593
rtoes 1.55325
lfemur -30.0045 7.3641 4.02935
ltibia 40.4353
lfoot -8.42911 6.97806
ltoes -25.3762
2289
root -16.9275 16.1201 17.5509 173.273 -47.9157 192.382
lowerback 15.3742 7.92805 -2.88767
upperback 8.09064 9.26731 0.404179
thorax -0.466269 4.2018 0.561774
lowerneck -22.7519 -4.80934 -3.88428
upperneck 30.9308 -9.36726 8.16042
head 15.2793 -3.51924 2.14321
rclavicle 1.46306e-013 -2.70347e-014
rhumerus -40.0502 25.3866 -99.3073
rradius 100.015
rwrist -1.00347
rhand -22.5748 -25.9885
rfingers 7.12502
rthumb 3.8537 -55.9334
lclavicle 1.46306e-013 -2.70347e-014
lhumerus -78.6888 -12.5377 104.406
lradius 52.0623
lwrist -8.10063
lhand 13.941 -22.9451
lfingers 7.12502
lthumb 38.8539 2.6166
rfemur 9.58402 -5.72107 16.9489
rtibia 12.1414
rfoot -20.651 -6.96593
rtoes 1.55325
lfemur -29.9337 7.83105 3.1301
ltibia 40.9236
lfoot -9.83958 6.72383
ltoes -21.1219
2290
root -17.0667 16.1236 17.5389 173.592 -47.8072 192.089
lowerback 15.3771 7.88458 -3.09992
upperback 8.22985 9.15082 0.105448
thorax -0.298402 4.13022 0.399001
lowerneck -22.7873 -4.78901 -3.85087
upperneck 31.03 -9.45612 8.36152
head 15.356 -3.52617 2.20401
rclavicle -6.75868e-015 -7.15625e-015
rhumerus -40.4379 25.4124 -99.357
rradius 99.1037
rwrist -0.178139
rhand -22.4276 -26.1537
rfingers 7.12502
rthumb 3.99589 -56.096
lclavicle -6.75868e-015 -7.15625e-015
lhumerus -78.1047 -13.5507 104.518
lradius 52.0665
lwrist -10.0174
lhand 15.0891 -23.3313
lfingers 7.12502
lthumb 39.9355 1.91416
rfemur 9.58402 -5.72107 16.9489
rtibia 12.1414
rfoot -20.651 -6.96593
rtoes 1.55325
lfemur -29.8248 7.83239 2.59851
ltibia 41.5353
lfoot -10.3755 6.65424
ltoes -22.3872
2291
root -17.2051 16.1335 17.5266 173.752 -47.789 191.909
lowerback 15.4121 7.77225 -3.20247
upperback 8.45137 8.94691 -0.197277
thorax -0.0405316 4.01195 0.19013
lowerneck -23.2067 -4.76901 -3.60091
upperneck 31.4922 -9.57375 8.26678
head 15.6592 -3.54022 2.09731
rclavicle 2.82274e-014 4.85035e-014
rhumerus -40.4526 25.3352 -99.4066
rradius 97.9656
rwrist 0.200549
rhand -22.0519 -26.1031
rfingers 7.12502
rthumb 4.35865 -56.0383
lclavicle 2.82274e-014 4.85035e-014
lhumerus -77.2901 -14.559 104.391
lradius 52.1127
lwrist -11.8431
lhand 15.6284 -23.7433
lfingers 7.12502
lthumb 40.4428 1.34763
rfemur 9.58402 -5.72107 16.9489
rtibia 12.1414
rfoot -20.651 -6.96593
rtoes 1.55325
lfemur -29.6843 7.72221 2.13867
ltibia 42.1173
lfoot -11.1631 6.47057
ltoes -21.6305
2292
root -17.3408 16.1479 17.5121 173.813 -47.7961 192.006
lowerback 15.391 7.58808 -3.2138
upperback 8.54392 8.6832 -0.44361
thorax 0.113377 3.87586 -0.00362432
lowerneck -23.3717 -4.65058 -3.44459
upperneck 31.909 -9.58141 8.33024
head 15.8952 -3.51139 2.09942
rclavicle 6.55989e-014 2.22639e-014
rhumerus -40.655 25.3384 -99.7243
rradius 96.3595
rwrist 0.346979
rhand -21.7396 -26.0994
rfingers 7.12502
rthumb 4.6602 -56.0281
lclavicle 6.55989e-014 2.22639e-014
lhumerus -76.6385 -15.4112 104.095
lradius 52.3059
lwrist -13.4747
lhand 15.7213 -24.199
lfingers 7.12502
lthumb 40.5302 0.864885
rfemur 9.58402 -5.72107 16.9489
rtibia 12.1414
rfoot -20.651 -6.96593
rtoes 1.55325
lfemur -29.6207 7.94325 1.8734
ltibia 42.5965
lfoot -11.6838 6.17711
ltoes -22.4241
2293
root -17.4679 16.1672 17.4936 173.834 -47.7153 192.331
lowerback 15.2331 7.4351 -3.15738
upperback 8.57271 8.48975 -0.642459
thorax 0.269305 3.78232 -0.185906
lowerneck -23.0746 -4.42425 -3.4341
upperneck 31.8518 -9.48844 8.87035
head 15.8366 -3.41968 2.35006
rclavicle -1.35174e-013 6.36111e-014
rhumerus -40.633 25.0013 -99.9854
rradius 94.581
rwrist 0.443143
rhand -21.2667 -26.2804
rfingers 7.12502
rthumb 5.11679 -56.1986
lclavicle -1.35174e-013 6.36111e-014
lhumerus -75.9301 -16.2397 103.599
lradius 52.4872
lwrist -14.9212
lhand 15.8168 -24.4308
lfingers 7.12502
lthumb 40.62 0.605198
rfemur 9.58402 -5.72107 16.9489
rtibia 12.1414
rfoot -20.651 -6.96593
rtoes 1.55325
lfemur -29.5552 8.34626 1.8725
ltibia 42.8828
lfoot -12.0185 5.79049
ltoes -22.6494
2294
root -17.5863 16.1911 17.4774 173.847 -47.5753 192.585
lowerback 15.2186 7.35617 -3.1121
upperback 8.59766 8.37781 -0.867115
thorax 0.346559 3.72773 -0.419476
lowerneck -23.1826 -4.46233 -3.43438
upperneck 32.328 -9.76649 9.11092
head 16.1416 -3.50148 2.40246
rclavicle 7.23576e-014 -5.80451e-014
rhumerus -41.1497 24.4156 -100.196
rradius 93.4476
rwrist 0.348992
rhand -20.7217 -26.9594
rfingers 7.12502
rthumb 5.64301 -56.8643
lclavicle 7.23576e-014 -5.80451e-014
lhumerus -75.0505 -17.1436 102.947
lradius 52.5503
lwrist -16.2377
lhand 15.5582 -24.4576
lfingers 7.12502
lthumb 40.3769 0.653633
rfemur 9.58402 -5.72107 16.9489
rtibia 12.1414
rfoot -20.651 -6.96593
rtoes 1.55325
lfemur -29.3917 8.67638 1.89658
ltibia 43.1045
lfoot -12.5587 5.37246
ltoes -20.805
2295
root -17.7018 16.2196 17.4628 173.964 -47.4546 192.633
lowerback 15.289 7.28286 -3.14514
upperback 8.62529 8.25231 -1.14843
thorax 0.379733 3.6631 -0.677334
lowerneck -23.1954 -4.40541 -3.24216
upperneck 32.7309 -9.89775 9.16988
head 16.3523 -3.52692 2.37428
rclavicle 3.02153e-014 -1.51076e-014
rhumerus -41.7659 23.8149 -100.382
rradius 92.2464
rwrist 0.0415416
rhand -20.1185 -27.6179
rfingers 7.12502
rthumb 6.22541 -57.5064
lclavicle 3.02153e-014 -1.51076e-014
lhumerus -74.1337 -18.0713 102.17
lradius 52.6072
lwrist -17.3845
lhand 14.3844 -24.58
lfingers 7.12502
lthumb 39.2719 0.861636
rfemur 9.58402 -5.72107 16.9489
rtibia 12.1414
rfoot -20.651 -6.96593
rtoes 1.55325
lfemur -29.1673 8.93239 1.75484
ltibia 43.2379
lfoot -13.1523 5.10047
ltoes -20.0878
